<svg viewBox="0 0 16 16" class="shuffle" style="width: 14px; height: 14px; "><path d="M0.162354 11.7542C0.162354 12.1365 0.458984 12.4067 0.867676 12.4067H2.41675C3.55054 12.4067 4.21631 12.0771 4.99414 11.1609L6.58936 9.26245L8.16479 11.1279C8.9624 12.0771 9.71387 12.4067 10.8477 12.4067H12.166V13.9954C12.166 14.3118 12.3572 14.4963 12.6736 14.4963C12.8186 14.4963 12.9504 14.4436 13.0625 14.3579L15.6465 12.2024C15.897 11.998 15.897 11.6816 15.6465 11.4641L13.0625 9.30859C12.9504 9.21631 12.8186 9.17017 12.6736 9.17017C12.3572 9.17017 12.166 9.34814 12.166 9.67114V11.095H10.8872C10.1094 11.095 9.60181 10.8379 9.0415 10.1655L7.43311 8.2605L9.0481 6.34888C9.62158 5.66992 10.083 5.42603 10.8477 5.42603H12.166V6.87622C12.166 7.19263 12.3572 7.3772 12.6736 7.3772C12.8186 7.3772 12.9504 7.32446 13.0625 7.23877L15.6465 5.08325C15.897 4.87891 15.897 4.5625 15.6465 4.34497L13.0625 2.18945C12.9504 2.09717 12.8186 2.05103 12.6736 2.05103C12.3572 2.05103 12.166 2.229 12.166 2.552V4.10767H10.8542C9.68091 4.10767 8.9624 4.43066 8.12524 5.43262L6.58936 7.25854L4.99414 5.36011C4.21631 4.44385 3.50439 4.11426 2.3772 4.11426H0.867676C0.458984 4.11426 0.162354 4.38452 0.162354 4.76685C0.162354 5.14917 0.458984 5.42603 0.867676 5.42603H2.32446C3.06274 5.42603 3.5769 5.68311 4.1438 6.35547L5.74561 8.2605L4.1438 10.1655C3.5769 10.8379 3.10229 11.095 2.37061 11.095H0.867676C0.458984 11.095 0.162354 11.3718 0.162354 11.7542Z"></path></svg>